<?xml version="1.0" encoding="UTF-8"?>
<svg width="595.201" height="841.92" xmlns="http://www.w3.org/2000/svg" xmlns:svg="http://www.w3.org/2000/svg">
 <g>
  <title>Layer 1</title>
  <g id="svg_1">
   <g id="svg_2">
    <path fill-rule="evenodd" clip-rule="evenodd" d="m401.519,193.44c7.078,-3.029 16.159,-4.972 25.921,-4.56c4.262,26.987 -9,47.922 -26.16,56.64c-9.835,4.997 -22.154,7.767 -35.04,5.28c-11.632,-2.245 -20.32,-7.213 -27.601,-14.64c-7.442,-7.594 -11.423,-15.984 -14.159,-28.08c-2.469,-10.91 -10.146,-18.607 -21.601,-20.64c-13.362,-2.372 -23.016,4.751 -27.6,13.68c-5.269,10.263 -1.472,22.312 0.72,34.8c7.913,-0.647 16.978,-2.222 25.92,-2.64c5.143,27.418 9.6,55.52 14.64,83.04c57.02,3.47 96.672,23.491 127.681,53.28c30.226,29.038 53.667,68.485 58.56,122.16c5.429,59.543 -16.486,105.482 -42,137.279c-26.23,32.691 -63.133,58.688 -112.8,67.921c-27.576,5.126 -56.414,4.196 -81.12,-1.681c-24.236,-5.766 -45.322,-15.711 -62.88,-27.6c-36.034,-24.4 -62.791,-58.654 -76.56,-104.16c-7.192,-23.771 -10.086,-53.374 -6.48,-80.16c3.502,-26.012 11.77,-48.913 22.32,-67.92c21.543,-38.811 53.623,-66.956 95.76,-84.96c-4.481,-28.159 -10.143,-55.136 -14.4,-83.52c8.366,-2.273 16.799,-4.481 25.68,-6.24c-1.614,-10.136 -4.278,-19.034 -4.08,-29.04c0.189,-9.582 3.206,-18.623 7.44,-25.68c8.146,-13.578 23.345,-24.006 42,-25.2c15.38,-0.985 28.135,5.006 36.959,12.479c9.337,7.907 14.819,18.853 17.761,31.68c2.976,12.983 14.039,21.653 27.359,20.64c14.755,-1.119 27.356,-13.741 23.76,-32.158z" id="svg_3" fill="#ff0000"/>
   </g>
  </g>
 </g>
</svg>
